<svg width="366" height="64" viewBox="0 0 366 64" fill="none" xmlns="http://www.w3.org/2000/svg">
<path d="M19.8626 7.7143L19.8742 7.71168C20.3292 7.57315 20.6396 7.42859 20.9501 7.28402C24.6689 6.02269 28.3225 5.39012 32.0991 5.59767C33.1369 5.65471 34.1678 5.83814 35.2018 5.96357C36.8619 6.16937 38.2939 6.58571 39.6693 7.14267C44.1211 8.94551 47.9045 11.6632 50.7911 15.5294C53.1934 18.747 54.6032 22.3751 55.1739 26.3447C55.8427 30.9963 55.132 35.4734 53.4188 39.7964C51.2635 45.2343 47.924 49.8535 43.3967 53.5823C39.7509 56.585 35.665 58.7629 31.047 59.887C25.7321 61.1808 20.5158 60.8777 15.4036 58.9182C15.1421 58.818 14.8859 58.7023 14.6349 58.5783C14.5772 58.5497 14.5513 58.4571 14.478 58.3431C14.9904 58.4274 15.4613 58.5148 15.9352 58.5815C24.8509 59.8367 32.7805 57.5057 39.6846 51.8393C44.4808 47.9028 47.9398 42.9584 49.7232 36.9809C52.293 28.3672 49.8382 19.3347 42.8151 13.2979C39.895 10.7879 36.5532 9.11017 32.8499 8.11008C32.5985 8.00455 32.4934 7.99882 32.3883 7.99308C32.2644 7.8922 32.227 7.91225 32.227 7.91225C29.9742 7.50744 27.7537 7.23019 25.4989 7.27367C24.0931 7.30078 22.7001 7.42756 21.3145 7.65515C20.8427 7.7579 20.5875 7.82839 20.3323 7.89888L20.3323 7.8989C19.873 7.99323 19.5733 8.07232 19.1539 8.183C19.3649 7.82704 19.6148 7.77044 19.8626 7.7143Z" fill="#091B42"/>
<path d="M36.0349 63.9524L37.6233 63.1906C42.0743 61.2269 45.7525 58.4424 49.0208 55.0835C50.7008 53.357 52.2084 51.4966 53.5812 49.5229C53.8715 49.1566 54.0149 48.8711 54.1879 48.6048C56.9489 44.3539 58.8652 39.7596 59.827 34.7807C60.4252 31.6841 60.4447 28.5762 60.052 25.4482C59.633 22.1109 58.6701 18.9496 57.1348 15.9649C54.5774 10.9931 50.8956 7.05797 46.0903 4.17611C45.6085 3.88716 45.1177 3.61307 44.6311 3.33207C43.1979 2.6618 41.885 2.07287 40.5371 1.5792C38.8038 0.944379 36.9842 0.632139 35.1731 0.299839C34.8765 0.245409 34.5877 0.148395 34.3116 0C37.9165 0.0474909 41.4587 0.460146 44.8789 1.64561C45.6995 1.98269 46.3991 2.17125 47.0603 2.45029C50.3093 3.82127 53.2715 5.65027 55.843 8.07237C60.3536 12.3208 63.0408 17.5426 64.1599 23.6044C65.2629 29.5789 64.4712 35.3309 62.1948 40.9224C61.4825 42.672 60.6527 44.3603 59.6805 45.9799C59.4311 46.3123 59.3138 46.5494 59.1964 46.7864L59.1964 46.7865C58.7028 47.4655 58.3412 48.051 57.9796 48.6366C57.6303 49.0538 57.4379 49.4039 57.2 49.7199C53.3923 54.7777 48.5917 58.6356 42.932 61.4564C41.3137 62.2629 39.6306 62.9094 37.9344 63.5266C37.2361 63.9203 36.6849 64.091 36.0349 63.9524Z" fill="#E8191E"/>
<path d="M159.965 37.884L158.547 35.071C156.962 31.7737 155.449 28.6404 153.837 25.3016L153.835 25.2957C153.488 26.5312 153.367 27.5802 153.148 28.6061C152.922 29.6651 152.724 30.73 152.514 31.7923C152.296 32.8938 152.077 33.9951 151.859 35.0967C151.649 36.1591 151.444 37.2224 151.231 38.284C151.018 39.3456 150.802 40.4067 150.578 41.466C150.355 42.5171 150.243 43.5956 149.855 44.5884C148.428 44.7811 144.864 44.7547 143.823 44.5505C143.799 44.5203 143.765 44.4935 143.753 44.4591C143.741 44.4231 143.744 44.3788 143.75 44.3397C143.801 44.0234 143.846 43.7057 143.909 43.3916C145.577 35.0543 147.247 26.7173 148.917 18.3825L149.741 14.2672C150.563 14.0726 154.143 14.0077 155.575 14.1698C155.754 14.5223 155.96 14.9093 156.147 15.305C157.972 19.1475 159.791 22.9926 161.617 26.834C161.905 27.4388 162.137 28.0799 162.655 28.6595C162.825 28.4888 162.967 28.3647 163.087 28.2234C165.279 25.6567 167.46 23.0815 169.66 20.5218C171.31 18.6019 172.996 16.7128 174.636 14.7847C175.064 14.2818 175.515 14.0477 176.188 14.0679C177.716 14.1137 179.247 14.086 180.776 14.0933C180.973 14.0942 181.169 14.1257 181.33 14.14C181.382 14.2181 181.406 14.248 181.424 14.2815C181.442 14.3171 181.471 14.3591 181.465 14.3931C179.727 24.3896 177.565 34.3027 175.568 44.2483C175.545 44.3616 175.464 44.4632 175.413 44.5647C174.431 44.7384 170.469 44.7331 169.353 44.5479C169.424 43.2757 169.785 42.0481 170.017 40.8013C170.259 39.5006 170.542 38.2076 170.802 36.9101C171.054 35.6518 171.301 34.3924 171.546 33.1327C171.799 31.8336 172.043 30.5328 172.298 29.2342C172.545 27.9791 172.803 26.7259 173.092 25.2875C172.808 25.4834 172.646 25.5554 172.537 25.6757C171.327 27.0188 170.121 28.3662 168.921 29.7185C166.76 32.1528 164.575 34.5659 162.464 37.0427C161.785 37.8393 161.088 38.2225 159.965 37.884Z" fill="#E4171E"/>
<path d="M365.037 19.4685L364.513 22.0625L363.991 24.6309C363.275 28.156 362.581 31.5759 361.884 34.9955C361.236 38.1768 360.584 41.3574 359.938 44.5229C359.142 44.7382 356.095 44.7909 354.31 44.6165C350.738 38.202 347.247 31.6732 343.558 25.0948C343.231 25.517 343.303 25.8919 343.214 26.2088C343.115 26.5555 343.052 26.9123 342.98 27.266C342.899 27.6589 342.826 28.0534 342.75 28.4472C342.682 28.8016 342.615 29.1562 342.545 29.5104C342.475 29.8646 342.405 30.2188 342.332 30.5723C342.258 30.9256 342.18 31.2779 342.104 31.6309C342.029 31.9839 341.955 32.3372 341.881 32.6904C341.806 33.0437 341.731 33.3968 341.659 33.7504C341.578 34.1432 341.498 34.5361 341.42 34.9295C341.35 35.2836 341.287 35.639 341.217 35.993C341.146 36.3469 341.069 36.6994 340.997 37.0532C340.925 37.4069 340.858 37.7615 340.787 38.1156C340.717 38.4696 340.646 38.8235 340.575 39.1772C340.503 39.531 340.43 39.8845 340.358 40.2381C340.277 40.6309 340.197 41.0236 340.116 41.4164C340.043 41.7699 339.971 42.1236 339.897 42.4767C339.822 42.8297 339.745 43.1824 339.667 43.5347C339.589 43.8837 339.508 44.232 339.419 44.6247C338.72 44.7723 338.04 44.6816 337.367 44.6908C336.724 44.6996 336.079 44.6912 335.436 44.6713C334.76 44.6504 334.077 44.7321 333.392 44.5845C333.392 44.3863 333.366 44.2266 333.395 44.0779C335.363 34.2077 337.335 24.3383 339.311 14.47C339.333 14.3591 339.426 14.2622 339.505 14.1261H344.727C348.351 20.718 351.953 27.3346 355.76 34.0062C355.891 33.6234 356.003 33.3831 356.055 33.1305L356.116 32.8331C356.671 30.1431 357.225 27.4531 357.76 24.7594C358.425 21.4158 359.068 18.0681 359.726 14.7232C359.763 14.5339 359.848 14.3539 359.934 14.101C361.96 14.0499 363.957 14.0884 365.991 14.0781C366.056 15.0665 365.74 15.9004 365.582 16.7557C365.415 17.6626 365.22 18.5644 365.037 19.4685Z" fill="#0B1C43"/>
<path d="M203.328 44.6914C199.706 44.6989 196.084 44.6915 192.463 44.6885C188.52 44.678 184.818 44.6679 181.117 44.6532C181.043 44.653 180.97 44.5996 180.897 44.571C180.872 44.5436 180.837 44.5203 180.824 44.4883C180.809 44.4529 180.803 44.4074 180.811 44.3698C182.817 34.387 184.825 24.4044 186.837 14.4226C186.852 14.3512 186.92 14.2907 186.964 14.2251C187.962 14.026 199.285 13.9473 209.628 14.0716C209.897 14.0748 210.165 14.1219 210.527 14.1577C210.214 15.7131 209.922 17.1996 209.614 18.683C209.518 19.1455 209.381 19.5995 209.251 20.1052C206.338 20.214 203.487 20.1877 200.638 20.1873C198.65 20.187 196.662 20.187 194.683 20.1871L192.096 20.1872C191.633 21.1325 190.895 24.8157 190.883 26.2153C191.917 26.358 192.96 26.2739 194 26.2855C195.006 26.2966 196.012 26.2832 197.018 26.2814L197.593 26.2803C198.447 26.2786 199.302 26.2769 200.156 26.2776C201.162 26.2785 202.168 26.285 203.174 26.2865C204.216 26.2882 205.258 26.2869 206.332 26.2869C206.51 27.0077 206.213 27.6016 206.111 28.2106C206.005 28.8425 205.842 29.4647 205.711 30.0928C205.582 30.7181 205.462 31.3454 205.335 31.9877C204.418 32.1783 203.533 32.0599 202.655 32.0834C201.811 32.1061 200.965 32.0937 200.12 32.0947C199.305 32.0956 198.49 32.0948 197.675 32.094L197.464 32.0938C196.579 32.093 195.694 32.09 194.809 32.0902C193.963 32.0904 193.118 32.0861 192.273 32.097C191.398 32.1084 190.518 32.0584 189.604 32.1429C189.052 34.2124 188.761 36.2634 188.387 38.214C188.584 38.581 188.851 38.5207 189.079 38.5187C190.527 38.5058 191.975 38.464 193.424 38.4633C197.287 38.4614 201.15 38.4748 205.013 38.4851C205.252 38.4857 205.491 38.5126 205.798 38.5315C205.777 39.597 205.445 40.5831 205.272 41.5906C205.103 42.5768 204.86 43.5503 204.655 44.501C204.213 44.8111 203.756 44.6905 203.328 44.6914Z" fill="#E4171E"/>
<path d="M134.13 53.4326C121.212 53.4333 108.293 53.4431 95.3748 53.4488C85.6039 53.4373 76.0743 53.4607 66.5 53.3981C66.3953 52.8714 66.6015 52.5207 66.7283 52.16C66.847 51.8222 66.9813 51.4898 67.0964 51.1873C67.5671 50.9474 68.019 51.0454 68.4506 51.0442C73.8835 51.0298 79.3165 51.025 84.7494 51.0253C128.092 51.0273 171.435 51.0319 214.778 51.0331C221.097 51.0333 227.415 51.0182 233.733 51.0144C234.976 51.0136 236.22 51.0292 237.463 51.0447L237.476 51.0449C237.709 51.0478 237.942 51.0865 238.302 51.1208C237.66 51.9393 236.979 52.5531 236.322 53.1834C236.168 53.3318 235.893 53.3867 235.665 53.42C235.389 53.4603 235.103 53.4331 234.821 53.4331C201.257 53.4328 167.694 53.4306 134.13 53.4326Z" fill="#0B1C43"/>
<path d="M287.374 53.4355C284.638 53.4348 281.902 53.436 279.166 53.4364C266.252 53.4234 253.579 53.4095 240.906 53.3925C240.878 53.3924 240.85 53.3441 240.76 53.2611C240.829 53.1573 240.887 53.0206 240.987 52.9315C241.586 52.3967 242.2 51.8778 242.8 51.3429C243.054 51.1162 243.337 51.0043 243.676 51.011C243.998 51.0173 244.32 51.0081 244.642 51.0081C267.252 51.0087 289.863 51.0095 312.473 51.0104C327.56 51.0111 342.647 51.0117 357.734 51.0145C358.089 51.0146 358.445 51.0403 358.888 51.0575C358.758 51.8623 358.582 52.5803 358.356 53.2446C357.944 53.5335 357.529 53.4395 357.137 53.4412C354.521 53.4523 351.906 53.4531 349.291 53.4525C328.652 53.4474 308.013 53.4411 287.374 53.4355Z" fill="#EF1E29"/>
<path d="M285.674 17.2316C285.478 18.2144 285.281 19.1969 285.085 20.1795C284.34 23.961 283.625 27.5379 282.906 31.1139C282.455 33.3538 281.998 35.5923 281.547 37.832C281.516 37.9837 281.51 38.1403 281.483 38.3731C281.779 38.4162 282.042 38.4867 282.307 38.4882C284.117 38.4984 285.927 38.4949 287.737 38.4944C290.594 38.4936 293.45 38.4902 296.306 38.4923C296.62 38.4926 296.934 38.5217 297.347 38.5424L296.163 44.5073C296.056 44.5874 296.027 44.6137 295.994 44.6329C295.96 44.6528 295.921 44.6799 295.884 44.6799C288.724 44.6865 281.565 44.6912 274.405 44.6923C274.291 44.6923 274.177 44.6472 274.099 44.6307C274.043 44.5704 274.008 44.5467 273.994 44.514C273.979 44.4789 273.973 44.4333 273.981 44.3956C275.938 34.4873 277.896 24.5792 279.857 14.6718C279.888 14.5177 279.962 14.3722 280.011 14.2372C280.985 14.0426 284.71 14.0205 286.199 14.2034C286.161 15.2347 285.873 16.2265 285.674 17.2316Z" fill="#0B1C43"/>
<path d="M226.42 38.436C228.633 38.3872 230.559 37.5445 232.229 36.1085C233.75 34.7671 234.582 33.1778 235.21 31.5216C236.313 31.3384 241.023 31.3461 242.018 31.5271C241.881 32.3588 241.593 33.1493 241.268 33.9133C239.095 39.0101 235.423 42.4529 230.035 44.0023C228.438 44.4614 226.824 44.7015 225.161 44.6953C220.457 44.6778 215.752 44.6901 211.048 44.686C210.697 44.6857 210.346 44.6492 209.899 44.6241L213.632 26.4553C214.589 26.2564 218.558 26.2158 220.012 26.3847C219.84 27.722 219.497 29.0256 219.243 30.344C218.985 31.6815 218.701 33.0141 218.437 34.3505C218.176 35.6722 217.857 36.9848 217.649 38.4055C218.079 38.4388 218.39 38.4843 218.701 38.4834C221.274 38.4758 223.848 38.4928 226.42 38.436Z" fill="#E4171E"/>
<path d="M228.567 20.1761C227.481 20.1532 226.395 20.1591 225.309 20.1531C221.697 20.146 218.327 20.1698 214.956 20.1504C214.989 19.1274 215.709 15.3798 216.101 14.1296C216.353 14.1092 216.627 14.0682 216.9 14.0678C221.325 14.0628 225.75 14.0367 230.174 14.0708C233.241 14.0945 236.023 15.0333 238.465 16.9076C240.276 18.2976 241.488 20.0987 242.131 22.2853C242.53 23.6399 242.767 25.019 242.768 26.4318C242.769 26.989 242.763 27.5532 242.528 28.0679C241.534 28.2236 237.878 28.2467 236.058 28.1055C236.034 27.8993 236.003 27.6769 235.981 27.4538C235.904 26.6979 235.924 25.9181 235.739 25.19C235.017 22.3482 233.076 20.8072 230.249 20.2996C229.698 20.2007 229.129 20.188 228.567 20.1761Z" fill="#0B1C43"/>
<path d="M112.052 28.8948C111.625 31.0575 111.171 33.2151 110.73 35.3749C110.083 38.5573 109.465 41.5368 108.844 44.5156C108.838 44.5465 108.788 44.5684 108.759 44.5946C107.66 44.7477 103.851 44.7103 102.718 44.527C102.718 44.3847 102.693 44.2286 102.722 44.0833C104.689 34.2583 106.66 24.4341 108.636 14.611C108.666 14.4605 108.765 14.3239 108.851 14.1413H114.805C114.805 14.4035 114.841 14.6351 114.799 14.8515C113.89 19.5338 112.977 24.2155 112.052 28.8948Z" fill="#E4171E"/>
<path d="M30.0556 44.4993C32.8113 42.2199 35.5662 39.9395 38.3232 37.6617C39.1594 36.9709 40.0009 36.2864 40.8411 35.6004C41.2886 35.2352 41.6278 34.793 41.7746 34.2297C42.1324 32.8567 41.9827 31.6024 40.8762 30.5863C40.6986 30.4233 40.5171 30.2645 40.3367 30.1046C36.2469 26.4792 32.1594 22.8513 28.0658 19.2302C26.561 17.899 25.0384 16.5877 23.5301 15.2604C22.1474 14.0436 20.0016 14.2239 18.792 15.0131C18.0206 15.5164 17.4726 16.1756 17.2263 17.0711C16.7575 18.7751 17.127 20.198 18.4906 21.4068C21.0764 23.6991 23.6114 26.0486 26.1596 28.3829C26.3108 28.5215 26.6274 28.6108 26.433 29.0037C24.7357 29.0037 23.0068 29.004 21.2778 29.0036C15.8862 29.0024 10.4945 28.9954 5.10294 29.0069C4.46337 29.0083 3.80926 29.0428 3.18727 29.178C1.18312 29.6138 -0.167753 31.5111 0.0168406 33.5506C0.196512 35.5357 1.82333 37.0445 3.89588 37.14C4.29753 37.1585 4.70044 37.153 5.10277 37.1531C10.9772 37.1541 16.8517 37.1525 22.7261 37.1559C23.8124 37.1566 24.8986 37.1723 25.9847 37.1915C26.1202 37.1939 26.2545 37.2605 26.6657 37.3729C26.3159 37.5989 26.1322 37.6898 25.9816 37.8191C23.5124 39.9391 21.0475 42.0642 18.5811 44.1875C18.2766 44.4496 17.9333 44.6765 17.6685 44.9734C16.7001 46.0591 16.2602 47.3121 16.7028 48.7459C17.1541 50.2081 18.1591 51.1181 19.6761 51.4127C20.9976 51.6693 22.1198 51.2449 23.1249 50.3836C25.3827 48.4489 27.6577 46.5341 30.0556 44.4993Z" fill="#091B42"/>
<path fill-rule="evenodd" clip-rule="evenodd" d="M71.1279 39.8295C70.2758 41.236 69.4258 42.6438 68.5863 44.0578C68.5277 44.1564 68.5026 44.2747 68.4728 44.4154C68.4633 44.4603 68.4533 44.5075 68.4416 44.5571C68.912 44.5635 69.3764 44.5685 69.8365 44.5735L69.8373 44.5735H69.8376C71.0982 44.5872 72.3257 44.6005 73.5524 44.6408C74.2346 44.6632 74.6645 44.4398 75.004 43.8307C75.6061 42.7507 76.2463 41.6917 76.8865 40.6328L76.8893 40.6281C77.0786 40.315 77.2679 40.0019 77.4562 39.6883C77.5812 39.48 77.7197 39.2798 77.8543 39.0854L77.8543 39.0853L77.8544 39.0852C77.9151 38.9975 77.975 38.9109 78.0324 38.8254C78.4157 38.8254 78.7906 38.8254 79.1597 38.8255C79.955 38.8256 80.7235 38.8257 81.492 38.8252C82.2763 38.8248 83.0607 38.8241 83.845 38.8235C86.1172 38.8215 88.3893 38.8195 90.6614 38.8239C90.7273 38.824 90.7938 38.8222 90.8608 38.8203C91.1929 38.811 91.537 38.8014 91.8814 39.0315L91.8875 39.0518C91.9312 39.0738 91.975 39.0992 92.0188 39.1285C92.2658 39.9572 92.4259 40.8163 92.587 41.6813C92.7629 42.6254 92.9401 43.5766 93.2331 44.5029C93.2433 44.5052 93.2533 44.5074 93.2633 44.5096C93.2782 44.513 93.2929 44.5163 93.3073 44.5196L93.3074 44.5196L93.3076 44.5196C93.4235 44.5459 93.5256 44.5691 93.6278 44.5696C95.516 44.5797 97.4042 44.5826 99.2924 44.5852C99.3302 44.5853 99.3742 44.5674 99.4042 44.5438C99.4225 44.5294 99.4354 44.5081 99.4643 44.4606C99.4822 44.4312 99.5063 44.3916 99.5415 44.3374C99.3593 43.3687 99.1363 42.3762 98.9061 41.3518L98.9058 41.3504C98.9057 41.3501 98.9056 41.3498 98.9055 41.3494C98.7386 40.6067 98.5679 39.8471 98.4063 39.0676C98.3563 38.8479 98.316 38.6555 98.2784 38.4763C98.2457 38.3202 98.2151 38.174 98.1819 38.0284C96.4298 30.3289 94.6774 22.6295 92.9196 14.9314C92.8729 14.7267 92.8016 14.5275 92.726 14.3159L92.7259 14.3158C92.7 14.2435 92.6736 14.1696 92.6475 14.0936C92.2007 14.0934 91.7571 14.0919 91.316 14.0904C90.2458 14.0867 89.1896 14.0831 88.1336 14.0983C87.9493 14.101 87.7897 14.1012 87.6504 14.1014C87.1585 14.1022 86.9199 14.1025 86.7435 14.2072C86.5773 14.3058 86.4663 14.497 86.2508 14.8684C86.1743 15.0003 86.0846 15.1548 85.9746 15.336C81.9422 21.9763 77.9173 28.621 73.8924 35.2658L73.8811 35.2845C72.9634 36.7995 72.0457 38.3146 71.1279 39.8295ZM90.534 32.8349C89.4289 33.0236 82.5201 33.0099 81.4505 32.8043C81.8601 31.9346 82.3384 31.1153 82.8147 30.2996L82.8149 30.2992L82.8151 30.2989C83.0216 29.9451 83.2278 29.592 83.4278 29.2357C83.8781 28.4334 84.335 27.6348 84.7919 26.8362L84.7979 26.8258C84.9963 26.4788 85.1948 26.1319 85.3927 25.7847C86.3396 24.1415 87.2056 22.6551 88.0754 21.1709C88.0832 21.1577 88.1091 21.155 88.1537 21.1504C88.1814 21.1475 88.2165 21.1439 88.2589 21.1364C88.2759 21.2187 88.2929 21.301 88.3099 21.3833C88.3296 21.4786 88.3493 21.5739 88.369 21.6692C88.4012 21.8245 88.4333 21.9798 88.4654 22.1351C88.47 22.1574 88.4747 22.1797 88.4793 22.202L88.677 23.1575C89.2962 26.1502 89.9157 29.1444 90.5281 32.14C90.5594 32.2934 90.5507 32.455 90.542 32.615C90.538 32.689 90.534 32.7626 90.534 32.8349Z" fill="#EF1E29"/>
<path fill-rule="evenodd" clip-rule="evenodd" d="M68.2801 44.5548C68.334 44.5556 68.3878 44.5563 68.4416 44.5571C68.4343 44.5877 68.4264 44.6193 68.4175 44.6517C68.942 44.6592 69.459 44.6649 69.9705 44.6704L69.974 44.6704H69.9742C71.2351 44.6841 72.4629 44.6974 73.6898 44.7377C74.372 44.7601 74.8018 44.5367 75.1413 43.9277C75.7435 42.8476 76.3837 41.7886 77.0238 40.7298C77.2141 40.4151 77.4043 40.1004 77.5936 39.7852C77.7186 39.577 77.8571 39.3768 77.9917 39.1823C78.0524 39.0945 78.1123 39.0079 78.1698 38.9223C78.4157 38.9223 78.6581 38.9223 78.8977 38.9224L79.2971 38.9224C80.0923 38.9225 80.8608 38.9226 81.6294 38.9222C82.403 38.9218 83.1766 38.9211 83.9502 38.9204L83.9824 38.9204C86.2545 38.9184 88.5266 38.9164 90.7988 38.9208C90.8647 38.921 90.9312 38.9191 90.9982 38.9172C91.288 38.9091 91.587 38.9008 91.8875 39.0518C92.1311 39.8743 92.2898 40.7264 92.4496 41.5844C92.6302 42.5536 92.8121 43.5302 93.1193 44.4798C93.159 44.4871 93.1968 44.495 93.2331 44.5029C93.2409 44.5276 93.2487 44.5522 93.2567 44.5768C93.3241 44.5892 93.3862 44.6032 93.4447 44.6165C93.5608 44.6428 93.6629 44.666 93.7652 44.6666C95.6534 44.6767 97.5416 44.6796 99.4298 44.6822C99.4676 44.6822 99.5116 44.6643 99.5415 44.6408C99.5598 44.6263 99.5728 44.6051 99.6017 44.5575C99.6196 44.5281 99.6436 44.4886 99.6789 44.4344C99.4901 43.4304 99.2574 42.4009 99.0121 41.3157C98.8489 40.5939 98.6802 39.8474 98.5151 39.0674C98.4944 38.9675 98.4743 38.8674 98.4542 38.7674C98.411 38.553 98.3678 38.3385 98.3193 38.1253C96.5672 30.4259 94.8148 22.7265 93.057 15.0283C93.0102 14.8236 92.939 14.6243 92.8633 14.4127L92.8631 14.4122L92.8629 14.4117C92.8263 14.3093 92.7886 14.2039 92.7522 14.0937L92.6475 14.0936C92.6365 14.0617 92.6256 14.0294 92.6148 13.9967C92.1327 13.9967 91.6546 13.9951 91.1792 13.9934L91.1787 13.9934C90.1084 13.9898 89.0522 13.9862 87.9963 14.0014C87.812 14.004 87.6523 14.0043 87.513 14.0045C87.0212 14.0052 86.7825 14.0056 86.6062 14.1102C86.4399 14.2089 86.329 14.4001 86.1135 14.7715L86.1134 14.7715C86.0369 14.9034 85.9472 15.0579 85.8372 15.239C81.8048 21.8794 77.7798 28.5243 73.7548 35.1692L73.7448 35.1858C72.8267 36.7014 71.9087 38.217 70.9905 39.7326C70.1385 41.1391 69.2885 42.5469 68.4489 43.9608C68.3904 44.0594 68.3652 44.1778 68.3354 44.3184L68.3354 44.3185C68.32 44.3912 68.3033 44.4699 68.2801 44.5548ZM92.6475 14.0936C92.6736 14.1696 92.7 14.2435 92.7259 14.3158L92.726 14.3159C92.8016 14.5275 92.8729 14.7267 92.9196 14.9314C94.6774 22.6295 96.4298 30.3289 98.1819 38.0284C98.2151 38.174 98.2457 38.3202 98.2784 38.4763C98.316 38.6555 98.3563 38.8479 98.4063 39.0676C98.5679 39.8471 98.7386 40.6067 98.9055 41.3494L98.9058 41.3504L98.9061 41.3518C99.1363 42.3762 99.3593 43.3687 99.5415 44.3374C99.5063 44.3916 99.4822 44.4312 99.4643 44.4606C99.4354 44.5081 99.4225 44.5294 99.4042 44.5438C99.3742 44.5674 99.3302 44.5853 99.2924 44.5852C97.4042 44.5826 95.516 44.5797 93.6278 44.5696C93.5256 44.5691 93.4235 44.5459 93.3076 44.5196L93.3074 44.5196L93.3073 44.5196C93.2929 44.5163 93.2782 44.513 93.2633 44.5096C93.2533 44.5074 93.2433 44.5052 93.2331 44.5029C92.9401 43.5766 92.7629 42.6254 92.587 41.6813C92.4259 40.8163 92.2658 39.9572 92.0188 39.1285C91.975 39.0992 91.9312 39.0738 91.8875 39.0518L91.8814 39.0315C91.537 38.8014 91.1929 38.811 90.8608 38.8203C90.7938 38.8222 90.7273 38.824 90.6614 38.8239C88.3893 38.8195 86.1172 38.8215 83.845 38.8235C83.0607 38.8241 82.2763 38.8248 81.492 38.8252C80.7235 38.8257 79.955 38.8256 79.1597 38.8255C78.7906 38.8254 78.4157 38.8254 78.0324 38.8254C77.975 38.9109 77.9151 38.9975 77.8544 39.0852L77.8543 39.0853L77.8543 39.0854C77.7197 39.2798 77.5812 39.48 77.4562 39.6883C77.2679 40.0019 77.0786 40.315 76.8893 40.6281L76.8865 40.6328C76.2463 41.6917 75.6061 42.7507 75.004 43.8307C74.6645 44.4398 74.2346 44.6632 73.5524 44.6408C72.3257 44.6005 71.0982 44.5872 69.8376 44.5735H69.8373L69.8365 44.5735C69.3764 44.5685 68.912 44.5635 68.4416 44.5571C68.4533 44.5075 68.4633 44.4603 68.4728 44.4154C68.5026 44.2747 68.5277 44.1564 68.5863 44.0578C69.4258 42.6438 70.2758 41.236 71.1279 39.8295C72.0457 38.3146 72.9634 36.7995 73.8811 35.2845L73.8924 35.2658C77.9173 28.621 81.9422 21.9763 85.9746 15.336C86.0846 15.1548 86.1743 15.0003 86.2508 14.8684C86.4663 14.497 86.5773 14.3058 86.7435 14.2072C86.9199 14.1025 87.1585 14.1022 87.6504 14.1014C87.7897 14.1012 87.9493 14.101 88.1336 14.0983C89.1896 14.0831 90.2458 14.0867 91.316 14.0904C91.7571 14.0919 92.2007 14.0934 92.6475 14.0936ZM88.3099 21.3833L88.369 21.6692L88.4654 22.1351C88.4136 21.8845 88.3617 21.6339 88.3099 21.3833Z" fill="#E4171E"/>
<path d="M140.748 29.3045C139.973 30.3567 139.093 31.1884 138.049 31.8029C137.021 32.4082 135.924 32.8969 134.784 33.4734C136.571 37.2106 138.597 40.8378 140.456 44.5837C139.274 44.796 135.145 44.8351 133.467 44.6655C133.041 44.1107 132.787 43.4331 132.477 42.788C131.19 40.1149 129.913 37.4377 128.629 34.7636C128.509 34.514 128.364 34.2761 128.249 34.0652C127.19 33.8689 124.674 33.8476 122.604 34.0147C122.525 34.2385 122.401 34.4863 122.35 34.7481C121.854 37.305 121.373 39.8648 120.88 42.4223C120.737 43.1644 120.567 43.9013 120.416 44.6104C119.363 44.8263 115.609 44.814 114.183 44.5952C114.544 42.028 115.133 39.5025 115.623 36.9601C116.108 34.4421 116.636 31.9322 117.139 29.4176C117.651 26.8639 118.165 24.3106 118.661 21.7537C119.147 19.2426 119.593 16.7234 120.141 14.2111C120.515 14.187 120.791 14.1539 121.067 14.1536C125.209 14.1482 129.351 14.136 133.494 14.1505C135.109 14.1562 136.702 14.3585 138.224 14.9455C139.881 15.5848 141.278 16.5463 142.172 18.1297C142.753 19.1593 143.097 20.2521 143.149 21.4412C143.275 24.3149 142.46 26.9003 140.748 29.3045ZM128.024 20.2027C127.111 20.2266 126.196 20.1839 125.219 20.2745C124.608 22.9339 124.123 25.5544 123.656 28.1898C123.842 28.2425 123.955 28.3022 124.068 28.3023C126.716 28.3044 129.365 28.3515 132.011 28.2825C134.639 28.214 136.464 26.1595 136.706 23.9484C136.915 22.0364 135.94 20.6586 134.03 20.3357C133.479 20.2426 132.914 20.2063 132.354 20.1993C130.99 20.1823 129.626 20.1976 128.024 20.2027Z" fill="#E4171E"/>
<path d="M252.777 37.2647C252.26 39.7952 251.758 42.2255 251.263 44.6261C250.114 44.8403 245.972 44.8048 245.039 44.573C247.071 34.4765 249.103 24.3771 251.145 14.229C251.421 14.2054 251.694 14.1619 251.967 14.1617C255.952 14.1591 259.937 14.1548 263.921 14.1687C265.169 14.173 266.412 14.2641 267.633 14.5595C268.863 14.857 269.987 15.3853 271.003 16.1221C272.542 17.2391 273.406 18.7853 273.755 20.6354C273.966 21.7513 273.95 22.8647 273.809 23.9901C273.108 29.5789 268.902 33.9738 263.213 35.0238C262.309 35.1907 261.375 35.2481 260.453 35.2654C258.522 35.3017 256.589 35.2776 254.657 35.2782C254.218 35.2784 253.778 35.2782 253.348 35.2782C252.95 35.8925 253.008 36.5695 252.777 37.2647ZM255.091 29.5754C257.261 29.577 259.433 29.6171 261.602 29.5711C264.88 29.5016 267.261 27.1371 267.467 23.8827C267.597 21.8303 266.33 20.6694 264.741 20.3452C264.155 20.2257 263.545 20.184 262.946 20.1797C260.896 20.1648 258.846 20.1798 256.796 20.1918C256.607 20.1929 256.418 20.2531 256.167 20.2967C255.583 23.3097 255.004 26.2945 254.431 29.2806C254.42 29.3379 254.488 29.4105 254.531 29.4985C254.631 29.5207 254.745 29.5462 255.091 29.5754Z" fill="#0B1C43"/>
<path d="M313.496 20.4711C314.811 18.353 316.075 16.3074 317.347 14.2508C318.367 14.0803 319.371 14.1686 320.369 14.1523C321.373 14.1359 322.378 14.1487 323.437 14.1487C323.531 14.3706 323.656 14.5733 323.706 14.7929C324.82 19.7185 325.927 24.6459 327.034 29.5731C328.071 34.1873 329.108 38.8014 330.142 43.4163C330.229 43.8048 330.289 44.1991 330.368 44.6235C329.656 44.8787 328.973 44.7299 328.306 44.754C327.583 44.7801 326.858 44.754 326.134 44.7526C325.454 44.7512 324.774 44.7523 324.033 44.7523C323.448 42.8621 323.229 40.9471 322.7 39.1256C321.74 38.9284 311.576 38.848 308.755 39.0141C308.04 39.8252 307.598 40.8653 307.005 41.8071C306.408 42.7544 305.839 43.7188 305.276 44.6467C304.183 44.8015 300.204 44.7956 298.909 44.6348C299.009 44.4061 299.078 44.1856 299.194 43.9928C300.556 41.7226 301.919 39.4523 303.295 37.1902C305.922 32.8715 308.558 28.558 311.19 24.2425C311.942 23.0094 312.694 21.7766 313.496 20.4711ZM319.602 23.6738C319.362 22.9027 319.343 22.0688 318.999 21.2955C318.875 21.3929 318.792 21.4281 318.756 21.4901C316.595 25.2009 314.437 28.9133 312.285 32.6297C312.215 32.7505 312.222 32.9153 312.179 33.1278C313.298 33.1278 314.341 33.127 315.385 33.128C316.391 33.1289 317.398 33.1506 318.404 33.1281C319.427 33.1053 320.46 33.208 321.502 33.0207C320.87 29.9182 320.254 26.8951 319.602 23.6738Z" fill="#0B1C43"/>
</svg>
